<?xml version="1.0" encoding="UTF-8" standalone="no"?>
<!-- Created with Inkscape (http://www.inkscape.org/) -->

<svg
   width="1920"
   height="1080"
   viewBox="0 0 1920 1080"
   version="1.1"
   id="svg5"
   xml:space="preserve"
   inkscape:version="1.2.2 (b0a8486541, 2022-12-01)"
   sodipodi:docname="samsung_logo_serenity_background.svg"
   xmlns:inkscape="http://www.inkscape.org/namespaces/inkscape"
   xmlns:sodipodi="http://sodipodi.sourceforge.net/DTD/sodipodi-0.dtd"
   xmlns="http://www.w3.org/2000/svg"
   xmlns:svg="http://www.w3.org/2000/svg"><sodipodi:namedview
     id="namedview7"
     pagecolor="#839cc8"
     bordercolor="#000000"
     borderopacity="0.25"
     inkscape:showpageshadow="2"
     inkscape:pageopacity="1"
     inkscape:pagecheckerboard="0"
     inkscape:deskcolor="#d1d1d1"
     inkscape:document-units="px"
     showgrid="false"
     inkscape:zoom="0.32805109"
     inkscape:cx="992.2235"
     inkscape:cy="516.68781"
     inkscape:window-width="1256"
     inkscape:window-height="636"
     inkscape:window-x="0"
     inkscape:window-y="0"
     inkscape:window-maximized="1"
     inkscape:current-layer="layer1" /><defs
     id="defs2" /><g
     inkscape:label="Livello 1"
     inkscape:groupmode="layer"
     id="layer1"><path
       d="m 1812.2333,536.61866 v 7.572 h 5.3212 v 7.51267 c 0.016,0.67133 -0.02,1.39533 -0.1353,1.97467 -0.2113,1.40133 -1.5427,3.78733 -5.32,3.78733 -3.7548,0 -5.062,-2.386 -5.2886,-3.78733 -0.095,-0.57934 -0.136,-1.30334 -0.136,-1.97467 v -23.72867 c 0,-0.83933 0.057,-1.758 0.2347,-2.45333 0.2579,-1.26467 1.3786,-3.75867 5.1619,-3.75867 3.9714,0 4.9627,2.62933 5.19,3.75867 0.1493,0.748 0.1581,2.00266 0.1581,2.00266 v 2.88134 h 13.0753 v -1.70334 c 0,0 0.059,-1.77733 -0.099,-3.436 -0.9827,-9.73933 -9.0073,-12.82066 -18.2086,-12.82066 -9.2181,0 -17.0801,3.11 -18.2253,12.82066 -0.1034,0.888 -0.2614,2.48534 -0.2614,3.436 V 550.53 c 0,0.95066 0.03,1.68666 0.2067,3.424 0.8533,9.47133 9.0619,12.82866 18.2433,12.82866 9.238,0 17.39,-3.35733 18.258,-12.82866 0.154,-1.73734 0.17,-2.47334 0.1906,-3.424 v -13.91134 z m -90.1567,-22.77667 h -13.1308 v 38.40867 c 0.021,0.66934 0,1.42134 -0.1153,1.97267 -0.2739,1.28933 -1.3666,3.77067 -4.9893,3.77067 -3.576,0 -4.6974,-2.48134 -4.9507,-3.77067 -0.1313,-0.55133 -0.148,-1.30333 -0.1313,-1.97267 v -38.40867 h -13.1267 v 37.21667 c -0.017,0.95934 0.059,2.91934 0.1153,3.43267 0.906,9.698 8.5493,12.84667 18.0934,12.84667 9.5627,0 17.2014,-3.14867 18.1241,-12.84667 0.073,-0.51333 0.168,-2.47333 0.1113,-3.43267 z m -120.6468,0 -6.55,40.58401 -6.546,-40.58401 h -21.1806 l -1.1234,51.91867 h 12.976 l 0.3514,-48.06267 8.928,48.06267 h 13.1653 l 8.936,-48.06267 0.3527,48.06267 h 13.0086 l -1.1613,-51.91867 z m -78.4206,0 -9.6174,51.91867 h 14.0247 l 7.2473,-48.06267 7.0734,48.06267 h 13.9273 l -9.5773,-51.91867 z m 244.9566,41.80067 -12.2266,-41.80067 h -19.2667 v 51.37734 h 12.7454 l -0.74,-43.138 13.1306,43.138 h 18.478 v -51.37734 h -12.8286 z m -117.892,-28.28867 c -0.2305,-1.02533 -0.164,-2.11466 -0.044,-2.684 0.3714,-1.662 1.4879,-3.47466 4.7053,-3.47466 2.9986,0 4.7567,1.86933 4.7567,4.67466 v 3.17467 h 12.7999 v -3.61867 c 0,-11.18666 -10.0292,-12.944 -17.2906,-12.944 -9.1453,0 -16.614,3.01467 -17.978,11.432 -0.3606,2.29067 -0.4499,4.324 0.1241,6.91868 2.224,10.49534 20.4953,13.53999 23.1472,20.17733 0.4681,1.25733 0.3341,2.86067 0.095,3.80533 -0.3974,1.72734 -1.5595,3.46467 -5.0042,3.46467 -3.2305,0 -5.1752,-1.85734 -5.1752,-4.65667 l -0.01,-4.98266 h -13.7773 v 3.96067 c 0,11.47667 8.9893,14.93933 18.6713,14.93933 9.2726,0 16.9313,-3.16866 18.1599,-11.758 0.5861,-4.438 0.1441,-7.32866 -0.091,-8.41733 -2.1468,-10.76467 -21.6206,-14.00267 -23.0946,-20.01134 m -168.8487,-0.12733 c -0.2514,-1.04667 -0.1926,-2.15134 -0.053,-2.72734 0.3547,-1.654 1.4781,-3.49866 4.752,-3.49866 3.0368,0 4.8248,1.88733 4.8248,4.71533 v 3.21334 h 12.9499 V 525.282 c 0,-11.294 -10.1826,-13.09401 -17.5232,-13.09401 -9.222,0 -16.7574,3.06134 -18.136,11.53935 -0.3774,2.32732 -0.442,4.37465 0.1033,6.998 2.2481,10.61467 20.7,13.684 23.3846,20.40067 0.5027,1.24866 0.3507,2.852 0.1014,3.83333 -0.4261,1.74533 -1.5973,3.50733 -5.0708,3.50733 -3.2432,0 -5.1832,-1.88933 -5.1832,-4.72733 l -0.018,-4.996 h -13.932 v 3.97 c 0,11.608 9.1168,15.09867 18.874,15.09867 9.3807,0 17.0841,-3.19667 18.3407,-11.88534 0.6247,-4.47866 0.156,-7.39333 -0.055,-8.49866 -2.1913,-10.89667 -21.882,-14.12401 -23.3601,-20.20134"
       style="fill:#bdc4ce;fill-opacity:1;fill-rule:nonzero;stroke:none;stroke-width:0.666665"
       id="path20"
       clip-path="url(#clipPath91)" /></g></svg>
